<svg xmlns="http://www.w3.org/2000/svg" viewBox="0 0 64 64">
  <rect x="11" y="47" width="28" height="8" rx="4.0" fill="#23282E"/>
  <circle cx="16.6" cy="51.0" r="1.76" fill="#B9C0C6"/>
  <circle cx="22.2" cy="51.0" r="1.76" fill="#B9C0C6"/>
  <circle cx="27.799999999999997" cy="51.0" r="1.76" fill="#B9C0C6"/>
  <circle cx="33.4" cy="51.0" r="1.76" fill="#B9C0C6"/>
  <rect x="15" y="34" width="20" height="12" rx="2.5" fill="#F2B10A" stroke="#23282E" stroke-width="0.9"/>
  <rect x="16" y="25" width="10" height="9" rx="2" fill="#F2B10A" stroke="#23282E" stroke-width="0.9"/>
  <rect x="17.6" y="26.6" width="6.8" height="4.5" rx="1" fill="#5B87AD"/>
  <rect x="18.2" y="27.2" width="2.72" height="3.3" rx="0.6" fill="#8FBCDC"/>
  <line x1="32" y1="32" x2="41" y2="24" stroke="#F2B10A" stroke-width="3.4" stroke-linecap="round"/>
  <line x1="41" y1="24" x2="45" y2="32" stroke="#F2B10A" stroke-width="3.4" stroke-linecap="round"/>
  <circle cx="32" cy="32" r="1.428" fill="#5E666D"/>
  <circle cx="41" cy="24" r="1.428" fill="#5E666D"/>
  <circle cx="45" cy="32" r="1.428" fill="#5E666D"/>
  <polygon points="42,32 51,30 50,39 42,39" fill="#8A939B" stroke="#23282E" stroke-width="0.9"/>
</svg>
